<svg xmlns="http://www.w3.org/2000/svg" viewBox="0 0 24 24">
  <style>
    svg {
      fill: #fff;
    }
  </style>
  <path d="M16.2,1.5c0-0.3-0.2-0.5-0.5-0.4c-1,0.2-2.1,0.8-2.8,1.5c-0.6,0.6-1.1,1.6-1.1,2.5c0,0.2,0.2,0.4,0.4,0.4c1.1-0.1,2.2-0.7,2.9-1.4C15.7,3.3,16.2,2.4,16.2,1.5z" />
  <g>
    <path d="M16.2,5.4c-1.8,0-2.6,1.1-3.8,1.1c-1.3,0-2.5-1-4-1c-2.1,0-5.3,2-5.3,6.6C3,16.3,6.8,21,9,21c1.3,0,1.6-0.8,3.4-0.8c1.8,0,2.2,0.8,3.5,0.8c1.5,0,2.6-1.6,3.5-2.9c0.4-0.7,0.7-1.1,1-1.7c0.2-0.4,0-0.8-0.4-1c-2.6-1.3-3.1-5.5-0.2-7c0.5-0.3,0.6-0.9,0.2-1.2C18.9,6.2,17.3,5.4,16.2,5.4z" />
  </g>
</svg>